<svg width="40" height="40" viewBox="0 0 40 40" fill="none" xmlns="http://www.w3.org/2000/svg">
<path d="M33.75 7.5H28.125V5.625C28.125 4.46468 27.6641 3.35188 26.8436 2.53141C26.0231 1.71094 24.9103 1.25 23.75 1.25H16.25C15.0897 1.25 13.9769 1.71094 13.1564 2.53141C12.3359 3.35188 11.875 4.46468 11.875 5.625V7.5H6.25C5.75272 7.5 5.27581 7.69754 4.92417 8.04917C4.57254 8.40081 4.375 8.87772 4.375 9.375C4.375 9.87228 4.57254 10.3492 4.92417 10.7008C5.27581 11.0525 5.75272 11.25 6.25 11.25H6.875V32.5C6.875 33.3288 7.20424 34.1237 7.79029 34.7097C8.37634 35.2958 9.1712 35.625 10 35.625H30C30.8288 35.625 31.6237 35.2958 32.2097 34.7097C32.7958 34.1237 33.125 33.3288 33.125 32.5V11.25H33.75C34.2473 11.25 34.7242 11.0525 35.0758 10.7008C35.4275 10.3492 35.625 9.87228 35.625 9.375C35.625 8.87772 35.4275 8.40081 35.0758 8.04917C34.7242 7.69754 34.2473 7.5 33.75 7.5ZM15.625 5.625C15.625 5.45924 15.6908 5.30027 15.8081 5.18306C15.9253 5.06585 16.0842 5 16.25 5H23.75C23.9158 5 24.0747 5.06585 24.1919 5.18306C24.3092 5.30027 24.375 5.45924 24.375 5.625V7.5H15.625V5.625ZM29.375 31.875H10.625V11.25H29.375V31.875Z" fill="#F1571F" stroke="#F1571F" stroke-width="0.7"/>
<path d="M18.125 26.25V16.25C18.125 15.7527 17.9275 15.2758 17.5758 14.9242C17.2242 14.5725 16.7473 14.375 16.25 14.375C15.7527 14.375 15.2758 14.5725 14.9242 14.9242C14.5725 15.2758 14.375 15.7527 14.375 16.25V26.25C14.375 26.7473 14.5725 27.2242 14.9242 27.5758C15.2758 27.9275 15.7527 28.125 16.25 28.125C16.7473 28.125 17.2242 27.9275 17.5758 27.5758C17.9275 27.2242 18.125 26.7473 18.125 26.25ZM25.625 26.25V16.25C25.625 15.7527 25.4275 15.2758 25.0758 14.9242C24.7242 14.5725 24.2473 14.375 23.75 14.375C23.2527 14.375 22.7758 14.5725 22.4242 14.9242C22.0725 15.2758 21.875 15.7527 21.875 16.25V26.25C21.875 26.7473 22.0725 27.2242 22.4242 27.5758C22.7758 27.9275 23.2527 28.125 23.75 28.125C24.2473 28.125 24.7242 27.9275 25.0758 27.5758C25.4275 27.2242 25.625 26.7473 25.625 26.25Z" fill="#F1571F" fill-opacity="0.8" stroke="#F4794C"/>
</svg>
