<svg width="74" height="74" viewBox="0 0 74 74" fill="none" xmlns="http://www.w3.org/2000/svg"><mask id="a" style="mask-type:alpha" maskUnits="userSpaceOnUse" x="6" y="28" width="43" height="42"><path d="M30.192 28.728c.358.149.608.45.868.724l.089.086c.11.11.166.205.223.35.27.564.828.843 1.397 1.042.098.034.196.066.295.098.308.101.603.225.898.359l.111.045c.754.33 1.311.952 1.75 1.62.116.164.197.273.395.332.12.016.12.016.252.017l.166.005c.724-.01 1.396-.28 2.05-.578l.1-.045c.077-.037.152-.079.226-.121l.016-.109c.073-.05.073-.05.172-.102.283-.16.52-.37.763-.583.284-.237.582-.422.964-.4.227.095.343.203.437.428.257.876-.083 1.859-.444 2.658-.046.077-.046.077-.141.109l.03.093c-.045.08-.045.08-.115.173l-.074.1-.079.107-.078.107-.194.26.183-.044c1.172-.28 1.172-.28 1.63-.038.242.18.347.406.389.698-.051.705-.712 1.298-1.22 1.746-.592.505-1.248.929-1.899 1.354-1.13.743-2.02 1.514-2.311 2.889-.106.85.123 1.549.63 2.222.25.29.522.516.852.714.089.06.089.06.12.153l.095-.031c.079.042.079.042.173.104.215.131.432.216.672.295l.13.043c.53.17 1.074.287 1.619.405.913.198 1.785.468 2.628.866.088.042.177.082.266.122.742.344 1.39.831 1.99 1.377.047.04.093.082.14.125a6.812 6.812 0 0 1 1.686 2.528l.058.15c.284.788.424 1.64.444 2.477l.004.132c.042 1.526-.211 2.974-.822 4.38l-.06.167-.053.129-.094.031.03.093c-.077.158-.176.304-.27.452l-.074.12c-1.94 3.066-5.805 4.518-9.075 5.756l-.134.051c-.948.36-1.905.687-2.868 1.005l-.117.038c-4.461 1.477-9.06 2.73-18.675 3.747l-.106-.012c-.771-.098-1.478-.354-2.174-.68l-.169-.075c-.519-.237-.963-.56-1.416-.9l-.095-.07c-.657-.485-1.742-1.35-2.002-2.132l-.11-.015a9.173 9.173 0 0 1-.166-.274c-.141-.238-.306-.461-.466-.687l-.08-.114-.071-.102c-.06-.096-.06-.096-.121-.282l-.11-.016c-.057-.091-.057-.091-.12-.225-.12-.24-.245-.478-.374-.714-1.196-2.192-2.386-5.137-1.622-7.67.186-.58.425-1.104.967-1.436.555-.289 1.082-.282 1.674-.12.45.143.879.359 1.3.571l.097.05.394.2c.627.322 1.276.585 1.99.648l.118.011c.93.082 1.826-.15 2.574-.722.425-.362.768-.791 1.091-1.241.945-1.309 2.322-1.824 3.81-2.316 1.1-.366 1.96-.732 2.52-1.798a2.518 2.518 0 0 0 .164-1.86c-.263-.683-.806-1.065-1.422-1.425-1.513-.887-2.672-2.218-3.119-3.919-.471-1.91-.142-3.948.7-5.727a8.17 8.17 0 0 0 .165-.378c.224-.52.488-1.023.803-1.495.08-.119.157-.239.234-.36.301-.475.622-.924.985-1.356l.07-.083c.64-.76 1.345-1.44 2.104-2.085l.1-.085c1.453-1.224 3.758-2.723 5.74-2.137zm-8.955 8.53c-.117.27-.214.546-.305.825l-.061.182c-.503 1.565-.587 3.232.13 4.738.416.772 1.031 1.403 1.74 1.919l.091.066c.074.053.15.1.227.148l.094-.03c.02.02.04.042.059.064.127.117.269.206.414.3.838.55 1.454 1.189 1.659 2.19.15.833.107 1.976-.404 2.702l-.062.088.03.093-.069.064a2.499 2.499 0 0 0-.247.309c-.791 1.053-1.856 1.505-3.077 1.887-1.501.473-2.48 1.108-3.433 2.358-.836 1.088-1.947 1.748-3.326 1.946-1.241.132-2.35-.162-3.46-.67a9.927 9.927 0 0 0-.46-.194 2.857 2.857 0 0 1-.477-.26c-.12-.051-.24-.1-.36-.147a4.048 4.048 0 0 1-.35-.17c-.213-.105-.416-.171-.658-.16-.194.082-.274.203-.366.383-.68 1.748.141 4.074.844 5.67 1.056 2.32 2.593 4.753 4.892 6.03l.153.09c1.038.61 2.243.744 3.434.738h.158c.193-.01.386-.024.58-.037l.159-.01c.467 0 .467 0 .87-.176l.03.093a150.839 150.839 0 0 0 .85-.108c.394-.049.779-.105 1.162-.212.134-.029.134-.029.305-.036.212-.01.411-.044.62-.084l.127-.024.423-.083.15-.03c1.702-.337 3.392-.748 5.075-1.173l.123-.03a80.846 80.846 0 0 0 5.752-1.698l.587-.195a387.853 387.853 0 0 0 .846-.28c.514-.172 1.02-.353 1.518-.564l-.03-.093.204-.017-.126.094c5.254-1.922 5.254-1.922 9.006-5.828l.066-.114c.914-1.653 1.054-3.896.586-5.682-.515-1.696-1.632-2.982-3.201-3.818-1.038-.538-2.12-.817-3.256-1.083a14.476 14.476 0 0 1-1.51-.43l-.098-.035a5.513 5.513 0 0 1-1.284-.646l-.107-.067c-.958-.615-1.553-1.51-1.829-2.602-.16-.797-.032-1.608.268-2.364l.064-.092c.046-.105.046-.105-.023-.244a2.662 2.662 0 0 0-.373-.46c-.371-.393-.693-.829-.898-1.331l-.042-.102c-.34-.905-.081-1.779.273-2.642.15-.377.256-.759.158-1.16l-.069.048c-.305.175-.718.266-1.063.192l-.114-.035-.142-.04a2.367 2.367 0 0 1-1.206-1.013c-.225-.57-.402-1.079-.14-1.672.034-.1.034-.1-.002-.19-.125-.124-.28-.166-.444-.223-.863-.32-1.487-.85-1.982-1.61-.148-.222-.265-.36-.52-.464-3.389-.517-6.975 4.705-8.153 7.21zm12.029-4.054c-.05.249.052.466.16.688.152.208.325.383.575.469.159.023.159.023.286-.04.13-.191.122-.366.085-.587-.12-.333-.403-.589-.72-.745-.237.046-.237.046-.386.215zm6.857-.173c-.99.8-2.23 1.368-3.52 1.345-.128-.01-.128-.01-.203.082.016.131.036.259.059.388.127.795-.088 1.505-.402 2.238-.068.135-.068.135-.024.237l.19-.063-.031-.093.11.015c1.434-.465 2.646-1.427 3.485-2.654l.083-.12c.274-.42.436-.93.51-1.422l-.03-.093c-.11.03-.11.03-.227.14zm.563 3.439c-.058.025-.115.05-.174.074l-.19.083-.099.043c-.805.349-1.6.718-2.396 1.088-.91.421-.91.421-1.363.599-.12.05-.232.11-.344.177.107.319.26.57.477.824l.067.08c.114.129.213.23.377.29l.098-.099c.552-.545 1.195-.966 1.85-1.382 1.258-.772 1.258-.772 2.266-1.829l.017-.108a2.07 2.07 0 0 0-.586.16z" fill="#fff" fill-opacity=".5"/></mask><g mask="url(#a)"><circle cx="36" cy="32" r="12" fill="#fff"/></g><circle cx="36" cy="32" r="10.5" stroke="#fff" stroke-width="5"/><path stroke="#fff" stroke-width="5" stroke-linecap="round" d="M43.121 40L49 45.879"/></svg>